<svg width="20" height="20" viewBox="0 0 20 20" fill="none" xmlns="http://www.w3.org/2000/svg">
<path d="M15.6537 7.49831H12.5046C12.2547 7.49831 11.7548 7.49831 12.1047 6.94848C12.6046 5.99877 13.6043 3.99939 14.2541 2.89972C14.554 2.34989 14.654 2 14.0541 2H8.05598C7.50615 2 7.25623 2.24992 7.0063 2.79975C6.3565 4.54922 4.65702 8.8479 4.05721 10.6473C3.85727 11.2472 4.20716 11.4971 4.70701 11.4971H8.05598C8.35589 11.4971 8.6558 11.5471 8.45586 12.1969C8.05598 13.3465 7.45617 15.6958 7.05629 17.0454C7.05629 17.0454 6.65641 18.8948 8.25592 17.4453C10.3053 15.3959 14.0042 10.1475 15.8036 8.29807C16.1035 7.94818 16.1035 7.49831 15.6537 7.49831Z" fill="black"/>
</svg>
